G75*
%MOIN*%
%OFA0B0*%
%FSLAX25Y25*%
%IPPOS*%
%LPD*%
%AMOC8*
5,1,8,0,0,1.08239X$1,22.5*
%
%ADD10C,0.00500*%
%ADD11R,0.00787X0.00787*%
%ADD12C,0.00800*%
D10*
X0119204Y0065472D02*
X0119204Y0066056D01*
X0119788Y0066640D01*
X0122707Y0066640D01*
X0122707Y0066056D02*
X0122707Y0067224D01*
X0122707Y0068572D02*
X0119204Y0068572D01*
X0119204Y0070907D01*
X0119788Y0072255D02*
X0119204Y0072839D01*
X0119204Y0074006D01*
X0119788Y0074590D01*
X0119788Y0075938D02*
X0119204Y0076522D01*
X0119204Y0077106D01*
X0119788Y0077690D01*
X0122707Y0077690D01*
X0122707Y0078273D02*
X0122707Y0077106D01*
X0122123Y0074590D02*
X0122707Y0074006D01*
X0122707Y0072839D01*
X0122123Y0072255D01*
X0119788Y0072255D01*
X0119204Y0065472D02*
X0119788Y0064889D01*
X0119204Y0079621D02*
X0119204Y0081957D01*
X0119788Y0083304D02*
X0119204Y0083888D01*
X0119204Y0085056D01*
X0119788Y0085640D01*
X0119788Y0086987D02*
X0119204Y0087571D01*
X0119204Y0088155D01*
X0119788Y0088739D01*
X0122707Y0088739D01*
X0122707Y0088155D02*
X0122707Y0089323D01*
X0122707Y0090671D02*
X0119204Y0090671D01*
X0119204Y0093006D01*
X0119788Y0094354D02*
X0119204Y0094938D01*
X0119204Y0096105D01*
X0119788Y0096689D01*
X0119788Y0098037D02*
X0119204Y0098621D01*
X0119204Y0099205D01*
X0119788Y0099788D01*
X0122707Y0099788D01*
X0122707Y0099205D02*
X0122707Y0100372D01*
X0122707Y0101720D02*
X0119204Y0101720D01*
X0119204Y0104055D01*
X0119788Y0105403D02*
X0119204Y0105987D01*
X0119204Y0107155D01*
X0119788Y0107739D01*
X0122123Y0107739D02*
X0122707Y0107155D01*
X0122707Y0105987D01*
X0122123Y0105403D01*
X0119788Y0105403D01*
X0122123Y0096689D02*
X0122707Y0096105D01*
X0122707Y0094938D01*
X0122123Y0094354D01*
X0119788Y0094354D01*
X0122123Y0085640D02*
X0122707Y0085056D01*
X0122707Y0083888D01*
X0122123Y0083304D01*
X0119788Y0083304D01*
X0119204Y0079621D02*
X0122707Y0079621D01*
D11*
G36*
X0160505Y0056614D02*
X0161230Y0056313D01*
X0160929Y0055588D01*
X0160204Y0055889D01*
X0160505Y0056614D01*
G37*
G36*
X0161230Y0117162D02*
X0160505Y0116861D01*
X0160204Y0117586D01*
X0160929Y0117887D01*
X0161230Y0117162D01*
G37*
G36*
X0054191Y0160874D02*
X0053890Y0161599D01*
X0054615Y0161900D01*
X0054916Y0161175D01*
X0054191Y0160874D01*
G37*
G36*
X0053890Y0011846D02*
X0054191Y0012571D01*
X0054916Y0012270D01*
X0054615Y0011545D01*
X0053890Y0011846D01*
G37*
D12*
X0030668Y0045202D02*
X0025353Y0045202D01*
X0011967Y0064887D01*
X0012485Y0065766D01*
X0012982Y0066658D01*
X0013457Y0067562D01*
X0013910Y0068476D01*
X0014341Y0069402D01*
X0014749Y0070337D01*
X0015135Y0071282D01*
X0015498Y0072237D01*
X0015837Y0073200D01*
X0016153Y0074170D01*
X0016445Y0075148D01*
X0016714Y0076133D01*
X0016959Y0077124D01*
X0017179Y0078121D01*
X0017376Y0079123D01*
X0017548Y0080129D01*
X0017696Y0081139D01*
X0017819Y0082152D01*
X0017918Y0083168D01*
X0017992Y0084186D01*
X0018041Y0085206D01*
X0018066Y0086227D01*
X0018066Y0087247D01*
X0018041Y0088268D01*
X0017992Y0089288D01*
X0017918Y0090306D01*
X0017819Y0091322D01*
X0017696Y0092335D01*
X0017548Y0093345D01*
X0017376Y0094351D01*
X0017179Y0095353D01*
X0016959Y0096350D01*
X0016714Y0097341D01*
X0016445Y0098326D01*
X0016153Y0099304D01*
X0015837Y0100274D01*
X0015498Y0101237D01*
X0015135Y0102192D01*
X0014749Y0103137D01*
X0014341Y0104072D01*
X0013910Y0104998D01*
X0013457Y0105912D01*
X0012982Y0106816D01*
X0012485Y0107708D01*
X0011967Y0108587D01*
X0011967Y0108588D02*
X0025353Y0128273D01*
X0030668Y0128273D01*
X0055865Y0128273D02*
X0061574Y0128273D01*
X0072204Y0116265D01*
X0072204Y0057210D01*
X0061574Y0045202D01*
X0055865Y0045202D01*
X0126386Y0091362D02*
X0126388Y0091467D01*
X0126394Y0091572D01*
X0126404Y0091676D01*
X0126418Y0091780D01*
X0126436Y0091884D01*
X0126458Y0091986D01*
X0126483Y0092088D01*
X0126513Y0092189D01*
X0126546Y0092288D01*
X0126583Y0092386D01*
X0126624Y0092483D01*
X0126669Y0092578D01*
X0126717Y0092671D01*
X0126768Y0092763D01*
X0126824Y0092852D01*
X0126882Y0092939D01*
X0126944Y0093024D01*
X0127008Y0093107D01*
X0127076Y0093187D01*
X0127147Y0093264D01*
X0127221Y0093338D01*
X0127298Y0093410D01*
X0127377Y0093479D01*
X0127459Y0093544D01*
X0127543Y0093607D01*
X0127630Y0093666D01*
X0127719Y0093722D01*
X0127810Y0093775D01*
X0127903Y0093824D01*
X0127997Y0093869D01*
X0128093Y0093911D01*
X0128191Y0093949D01*
X0128290Y0093983D01*
X0128391Y0094014D01*
X0128492Y0094040D01*
X0128595Y0094063D01*
X0128698Y0094082D01*
X0128802Y0094097D01*
X0128906Y0094108D01*
X0129011Y0094115D01*
X0129116Y0094118D01*
X0129221Y0094117D01*
X0129326Y0094112D01*
X0129430Y0094103D01*
X0129534Y0094090D01*
X0129638Y0094073D01*
X0129741Y0094052D01*
X0129843Y0094027D01*
X0129944Y0093999D01*
X0130043Y0093966D01*
X0130142Y0093930D01*
X0130239Y0093890D01*
X0130334Y0093847D01*
X0130428Y0093799D01*
X0130520Y0093749D01*
X0130610Y0093695D01*
X0130698Y0093637D01*
X0130783Y0093576D01*
X0130866Y0093512D01*
X0130947Y0093445D01*
X0131025Y0093375D01*
X0131100Y0093301D01*
X0131172Y0093226D01*
X0131242Y0093147D01*
X0131308Y0093066D01*
X0131372Y0092982D01*
X0131432Y0092896D01*
X0131488Y0092808D01*
X0131542Y0092717D01*
X0131592Y0092625D01*
X0131638Y0092531D01*
X0131681Y0092435D01*
X0131720Y0092337D01*
X0131755Y0092239D01*
X0131786Y0092138D01*
X0131814Y0092037D01*
X0131838Y0091935D01*
X0131858Y0091832D01*
X0131874Y0091728D01*
X0131886Y0091624D01*
X0131894Y0091519D01*
X0131898Y0091414D01*
X0131898Y0091310D01*
X0131894Y0091205D01*
X0131886Y0091100D01*
X0131874Y0090996D01*
X0131858Y0090892D01*
X0131838Y0090789D01*
X0131814Y0090687D01*
X0131786Y0090586D01*
X0131755Y0090485D01*
X0131720Y0090387D01*
X0131681Y0090289D01*
X0131638Y0090193D01*
X0131592Y0090099D01*
X0131542Y0090007D01*
X0131488Y0089916D01*
X0131432Y0089828D01*
X0131372Y0089742D01*
X0131308Y0089658D01*
X0131242Y0089577D01*
X0131172Y0089498D01*
X0131100Y0089423D01*
X0131025Y0089349D01*
X0130947Y0089279D01*
X0130866Y0089212D01*
X0130783Y0089148D01*
X0130698Y0089087D01*
X0130610Y0089029D01*
X0130520Y0088975D01*
X0130428Y0088925D01*
X0130334Y0088877D01*
X0130239Y0088834D01*
X0130142Y0088794D01*
X0130043Y0088758D01*
X0129944Y0088725D01*
X0129843Y0088697D01*
X0129741Y0088672D01*
X0129638Y0088651D01*
X0129534Y0088634D01*
X0129430Y0088621D01*
X0129326Y0088612D01*
X0129221Y0088607D01*
X0129116Y0088606D01*
X0129011Y0088609D01*
X0128906Y0088616D01*
X0128802Y0088627D01*
X0128698Y0088642D01*
X0128595Y0088661D01*
X0128492Y0088684D01*
X0128391Y0088710D01*
X0128290Y0088741D01*
X0128191Y0088775D01*
X0128093Y0088813D01*
X0127997Y0088855D01*
X0127903Y0088900D01*
X0127810Y0088949D01*
X0127719Y0089002D01*
X0127630Y0089058D01*
X0127543Y0089117D01*
X0127459Y0089180D01*
X0127377Y0089245D01*
X0127298Y0089314D01*
X0127221Y0089386D01*
X0127147Y0089460D01*
X0127076Y0089537D01*
X0127008Y0089617D01*
X0126944Y0089700D01*
X0126882Y0089785D01*
X0126824Y0089872D01*
X0126768Y0089961D01*
X0126717Y0090053D01*
X0126669Y0090146D01*
X0126624Y0090241D01*
X0126583Y0090338D01*
X0126546Y0090436D01*
X0126513Y0090535D01*
X0126483Y0090636D01*
X0126458Y0090738D01*
X0126436Y0090840D01*
X0126418Y0090944D01*
X0126404Y0091048D01*
X0126394Y0091152D01*
X0126388Y0091257D01*
X0126386Y0091362D01*
M02*
