G75*
%MOIN*%
%OFA0B0*%
%FSLAX25Y25*%
%IPPOS*%
%LPD*%
%AMOC8*
5,1,8,0,0,1.08239X$1,22.5*
%
%ADD10R,0.05524X0.05524*%
%ADD11C,0.04737*%
%ADD12R,0.13300X0.08800*%
%ADD13C,0.32296*%
%ADD14C,0.07400*%
%ADD15R,0.05950X0.05950*%
%ADD16C,0.05950*%
D10*
G36*
X0047339Y0011995D02*
X0049453Y0017097D01*
X0054555Y0014983D01*
X0052441Y0009881D01*
X0047339Y0011995D01*
G37*
G36*
X0054978Y0008832D02*
X0057092Y0013934D01*
X0062194Y0011820D01*
X0060080Y0006718D01*
X0054978Y0008832D01*
G37*
G36*
X0157491Y0055526D02*
X0162593Y0053412D01*
X0160479Y0048310D01*
X0155377Y0050424D01*
X0157491Y0055526D01*
G37*
G36*
X0160655Y0063165D02*
X0165757Y0061051D01*
X0163643Y0055949D01*
X0158541Y0058063D01*
X0160655Y0063165D01*
G37*
G36*
X0165757Y0112424D02*
X0160655Y0110310D01*
X0158541Y0115412D01*
X0163643Y0117526D01*
X0165757Y0112424D01*
G37*
G36*
X0162593Y0120063D02*
X0157491Y0117949D01*
X0155377Y0123051D01*
X0160479Y0125165D01*
X0162593Y0120063D01*
G37*
G36*
X0057092Y0159511D02*
X0054978Y0164613D01*
X0060080Y0166727D01*
X0062194Y0161625D01*
X0057092Y0159511D01*
G37*
G36*
X0049453Y0156348D02*
X0047339Y0161450D01*
X0052441Y0163564D01*
X0054555Y0158462D01*
X0049453Y0156348D01*
G37*
D11*
X0129142Y0091362D03*
D12*
X0037267Y0042738D03*
X0049767Y0042738D03*
X0049267Y0130737D03*
X0036767Y0130737D03*
D13*
X0043267Y0096579D02*
X0043267Y0076895D01*
D14*
X0153092Y0081738D03*
X0154692Y0091737D03*
X0153092Y0101737D03*
X0154692Y0111737D03*
X0154692Y0071738D03*
X0153092Y0061737D03*
D15*
X0095767Y0016738D03*
X0095767Y0156738D03*
D16*
X0095767Y0148863D03*
X0095767Y0140989D03*
X0095767Y0133115D03*
X0095767Y0125241D03*
X0095767Y0117367D03*
X0095767Y0109493D03*
X0095767Y0101619D03*
X0095767Y0093737D03*
X0095767Y0079738D03*
X0095767Y0071856D03*
X0095767Y0063982D03*
X0095767Y0056108D03*
X0095767Y0048234D03*
X0095767Y0040360D03*
X0095767Y0032486D03*
X0095767Y0024612D03*
M02*
