G75*
%MOIN*%
%OFA0B0*%
%FSLAX25Y25*%
%IPPOS*%
%LPD*%
%AMOC8*
5,1,8,0,0,1.08239X$1,22.5*
%
%ADD10R,0.04724X0.04724*%
%ADD11C,0.03937*%
%ADD12R,0.12500X0.08000*%
%ADD13C,0.31496*%
%ADD14C,0.06600*%
%ADD15R,0.05150X0.05150*%
%ADD16C,0.05150*%
%ADD17C,0.03569*%
%ADD18C,0.01000*%
%ADD19C,0.01600*%
D10*
G36*
X0047861Y0012211D02*
X0049669Y0016575D01*
X0054033Y0014767D01*
X0052225Y0010403D01*
X0047861Y0012211D01*
G37*
G36*
X0055500Y0009048D02*
X0057308Y0013412D01*
X0061672Y0011604D01*
X0059864Y0007240D01*
X0055500Y0009048D01*
G37*
G36*
X0157707Y0055004D02*
X0162071Y0053196D01*
X0160263Y0048832D01*
X0155899Y0050640D01*
X0157707Y0055004D01*
G37*
G36*
X0160871Y0062643D02*
X0165235Y0060835D01*
X0163427Y0056471D01*
X0159063Y0058279D01*
X0160871Y0062643D01*
G37*
G36*
X0165235Y0112640D02*
X0160871Y0110832D01*
X0159063Y0115196D01*
X0163427Y0117004D01*
X0165235Y0112640D01*
G37*
G36*
X0162071Y0120279D02*
X0157707Y0118471D01*
X0155899Y0122835D01*
X0160263Y0124643D01*
X0162071Y0120279D01*
G37*
G36*
X0057308Y0160033D02*
X0055500Y0164397D01*
X0059864Y0166205D01*
X0061672Y0161841D01*
X0057308Y0160033D01*
G37*
G36*
X0049669Y0156870D02*
X0047861Y0161234D01*
X0052225Y0163042D01*
X0054033Y0158678D01*
X0049669Y0156870D01*
G37*
D11*
X0129142Y0091362D03*
D12*
X0049267Y0130737D03*
X0036767Y0130737D03*
X0037267Y0042738D03*
X0049767Y0042738D03*
D13*
X0043267Y0076895D02*
X0043267Y0096579D01*
D14*
X0153092Y0101737D03*
X0154692Y0091737D03*
X0153092Y0081738D03*
X0154692Y0071738D03*
X0153092Y0061737D03*
X0154692Y0111737D03*
D15*
X0095767Y0156738D03*
X0095767Y0016738D03*
D16*
X0095767Y0024612D03*
X0095767Y0032486D03*
X0095767Y0040360D03*
X0095767Y0048234D03*
X0095767Y0056108D03*
X0095767Y0063982D03*
X0095767Y0071856D03*
X0095767Y0079738D03*
X0095767Y0093737D03*
X0095767Y0101619D03*
X0095767Y0109493D03*
X0095767Y0117367D03*
X0095767Y0125241D03*
X0095767Y0133115D03*
X0095767Y0140989D03*
X0095767Y0148863D03*
D17*
X0118267Y0154863D03*
X0144204Y0124550D03*
X0150142Y0107050D03*
X0135767Y0096737D03*
X0135767Y0086737D03*
X0126808Y0077613D03*
X0138267Y0070175D03*
X0122329Y0063925D03*
X0118892Y0059862D03*
X0115142Y0055800D03*
X0109829Y0044550D03*
X0106392Y0008300D03*
X0070142Y0042988D03*
X0061150Y0018604D03*
X0013892Y0062987D03*
X0014517Y0111737D03*
X0060767Y0134863D03*
X0060767Y0141738D03*
X0060872Y0158702D03*
X0073892Y0120487D03*
X0087392Y0117175D03*
X0091079Y0113112D03*
X0089017Y0096550D03*
X0113267Y0101737D03*
X0113267Y0113925D03*
X0158892Y0086737D03*
D18*
X0038267Y0041738D02*
X0037267Y0042738D01*
X0038267Y0041738D02*
X0045767Y0041738D01*
X0046767Y0042738D01*
X0047017Y0042988D01*
X0050017Y0042988D01*
X0049767Y0042738D01*
X0046767Y0042738D01*
X0058892Y0042988D02*
X0080767Y0065362D01*
X0080767Y0108487D01*
X0058017Y0130737D01*
X0049267Y0130737D01*
X0036767Y0130737D01*
X0015767Y0111737D02*
X0014517Y0111737D01*
X0060767Y0134863D02*
X0064579Y0134863D01*
X0085142Y0114800D01*
X0085142Y0095987D01*
X0094204Y0087050D01*
X0111079Y0087050D01*
X0147017Y0051737D01*
X0158985Y0051737D01*
X0158985Y0051918D01*
X0162149Y0059557D02*
X0162572Y0061744D01*
X0153092Y0061737D02*
X0142017Y0061737D01*
X0132017Y0071738D01*
X0132017Y0082988D01*
X0135767Y0086737D01*
X0138267Y0082988D02*
X0138267Y0070175D01*
X0129142Y0079946D02*
X0126808Y0077613D01*
X0129142Y0079946D02*
X0129142Y0091362D01*
X0135767Y0096737D02*
X0140767Y0101737D01*
X0153092Y0101737D01*
X0158892Y0086737D02*
X0142017Y0086737D01*
X0138267Y0082988D01*
X0122329Y0063925D02*
X0095823Y0063925D01*
X0095767Y0063982D01*
X0099521Y0059862D02*
X0095767Y0056108D01*
X0095771Y0056112D01*
X0099521Y0059862D02*
X0118892Y0059862D01*
X0115142Y0055800D02*
X0107708Y0048300D01*
X0095767Y0048234D01*
X0109829Y0044550D02*
X0097831Y0032675D01*
X0095767Y0032486D01*
X0091079Y0010800D02*
X0093579Y0007987D01*
X0106079Y0007987D01*
X0106392Y0008300D01*
X0091079Y0010800D02*
X0091079Y0087050D01*
X0082954Y0095487D01*
X0082954Y0111425D01*
X0073892Y0120487D01*
X0074517Y0129237D02*
X0152554Y0129237D01*
X0158985Y0121557D01*
X0144204Y0124550D02*
X0113392Y0093737D01*
X0095767Y0093737D01*
X0095767Y0095112D01*
X0091079Y0099800D01*
X0091079Y0113112D01*
X0087392Y0117175D02*
X0087392Y0098300D01*
X0089017Y0096550D01*
X0095767Y0101619D02*
X0095885Y0101737D01*
X0113267Y0101737D01*
X0113267Y0113925D02*
X0099512Y0113925D01*
X0095767Y0117367D01*
X0074517Y0129237D02*
X0062017Y0141738D01*
X0060767Y0141738D01*
X0060872Y0158702D02*
X0058586Y0163119D01*
X0050947Y0159956D02*
X0051086Y0158918D01*
X0014517Y0062987D02*
X0013892Y0062987D01*
X0061150Y0018604D02*
X0058586Y0010326D01*
D19*
X0050947Y0013489D02*
X0020767Y0043670D01*
X0020767Y0056737D01*
X0014517Y0062987D01*
X0013892Y0062987D02*
X0019517Y0062987D01*
X0043267Y0086737D01*
X0018267Y0111737D01*
X0014517Y0111737D01*
X0015767Y0111737D02*
X0020767Y0116737D01*
X0020767Y0129775D01*
X0050947Y0159956D01*
X0051086Y0158918D02*
X0055142Y0154863D01*
X0093892Y0154863D01*
X0095767Y0156738D01*
X0097642Y0154863D01*
X0118267Y0154863D01*
X0162149Y0113918D02*
X0162461Y0105932D01*
X0150947Y0106869D01*
X0150142Y0107050D01*
X0162461Y0105932D02*
X0162461Y0059869D01*
X0162149Y0059557D01*
X0162572Y0061744D02*
X0158397Y0061744D01*
X0153092Y0061737D01*
X0070142Y0042988D02*
X0058892Y0042988D01*
X0050017Y0042988D01*
M02*
