G75*
%MOIN*%
%OFA0B0*%
%FSLAX25Y25*%
%IPPOS*%
%LPD*%
%AMOC8*
5,1,8,0,0,1.08239X$1,22.5*
%
%ADD10R,0.05918X0.05524*%
%ADD11R,0.03800X0.06800*%
%ADD12R,0.05524X0.05918*%
%ADD13R,0.05524X0.05524*%
%ADD14R,0.04068X0.03280*%
%ADD15C,0.07400*%
%ADD16R,0.05950X0.05950*%
%ADD17C,0.05950*%
%ADD18C,0.03800*%
D10*
X0106392Y0030862D03*
X0106392Y0038863D03*
X0162329Y0070863D03*
X0162329Y0078863D03*
X0162329Y0097737D03*
X0162329Y0105737D03*
D11*
X0133267Y0045987D03*
X0118267Y0045987D03*
X0118267Y0023987D03*
X0133267Y0023987D03*
D12*
X0074767Y0090487D03*
X0074767Y0097362D03*
X0074767Y0104237D03*
X0074767Y0111112D03*
X0066767Y0111112D03*
X0066767Y0104237D03*
X0066767Y0097362D03*
X0066767Y0090487D03*
X0066767Y0127987D03*
X0066767Y0134863D03*
X0066767Y0141738D03*
X0066767Y0148613D03*
X0074767Y0148613D03*
X0074767Y0141738D03*
X0074767Y0134863D03*
X0074767Y0127987D03*
D13*
G36*
X0016127Y0050424D02*
X0011025Y0048310D01*
X0008911Y0053412D01*
X0014013Y0055526D01*
X0016127Y0050424D01*
G37*
G36*
X0012963Y0058063D02*
X0007861Y0055949D01*
X0005747Y0061051D01*
X0010849Y0063165D01*
X0012963Y0058063D01*
G37*
G36*
X0007861Y0117526D02*
X0012963Y0115412D01*
X0010849Y0110310D01*
X0005747Y0112424D01*
X0007861Y0117526D01*
G37*
G36*
X0011025Y0125165D02*
X0016127Y0123051D01*
X0014013Y0117949D01*
X0008911Y0120063D01*
X0011025Y0125165D01*
G37*
G36*
X0109339Y0161625D02*
X0111453Y0166727D01*
X0116555Y0164613D01*
X0114441Y0159511D01*
X0109339Y0161625D01*
G37*
G36*
X0116978Y0158462D02*
X0119092Y0163564D01*
X0124194Y0161450D01*
X0122080Y0156348D01*
X0116978Y0158462D01*
G37*
G36*
X0119092Y0009881D02*
X0116978Y0014983D01*
X0122080Y0017097D01*
X0124194Y0011995D01*
X0119092Y0009881D01*
G37*
G36*
X0111453Y0006718D02*
X0109339Y0011820D01*
X0114441Y0013934D01*
X0116555Y0008832D01*
X0111453Y0006718D01*
G37*
D14*
X0075767Y0044210D03*
X0075767Y0053265D03*
D15*
X0153092Y0061737D03*
X0154692Y0071738D03*
X0153092Y0081738D03*
X0154692Y0091737D03*
X0153092Y0101737D03*
X0154692Y0111737D03*
D16*
X0095767Y0156738D03*
X0095767Y0016738D03*
D17*
X0095767Y0024612D03*
X0095767Y0032486D03*
X0095767Y0040360D03*
X0095767Y0048234D03*
X0095767Y0056108D03*
X0095767Y0063982D03*
X0095767Y0071856D03*
X0095767Y0079738D03*
X0095767Y0093737D03*
X0095767Y0101619D03*
X0095767Y0109493D03*
X0095767Y0117367D03*
X0095767Y0125241D03*
X0095767Y0133115D03*
X0095767Y0140989D03*
X0095767Y0148863D03*
D18*
X0104767Y0119237D02*
X0107767Y0119237D01*
X0107767Y0114237D02*
X0104767Y0114237D01*
X0104767Y0109237D02*
X0107767Y0109237D01*
X0107767Y0104237D02*
X0104767Y0104237D01*
X0104767Y0099237D02*
X0107767Y0099237D01*
X0107767Y0094237D02*
X0104767Y0094237D01*
X0104767Y0089237D02*
X0107767Y0089237D01*
X0107767Y0084238D02*
X0104767Y0084238D01*
X0104767Y0079238D02*
X0107767Y0079238D01*
X0107767Y0074238D02*
X0104767Y0074238D01*
X0104767Y0069238D02*
X0107767Y0069238D01*
X0107767Y0064237D02*
X0104767Y0064237D01*
X0104767Y0059237D02*
X0107767Y0059237D01*
X0107767Y0054237D02*
X0104767Y0054237D01*
X0143267Y0054237D02*
X0146267Y0054237D01*
X0146267Y0059237D02*
X0143267Y0059237D01*
X0143267Y0064237D02*
X0146267Y0064237D01*
X0146267Y0069238D02*
X0143267Y0069238D01*
X0143267Y0074238D02*
X0146267Y0074238D01*
X0146267Y0079238D02*
X0143267Y0079238D01*
X0143267Y0084238D02*
X0146267Y0084238D01*
X0146267Y0089237D02*
X0143267Y0089237D01*
X0143267Y0094237D02*
X0146267Y0094237D01*
X0146267Y0099237D02*
X0143267Y0099237D01*
X0143267Y0104237D02*
X0146267Y0104237D01*
X0146267Y0109237D02*
X0143267Y0109237D01*
X0143267Y0114237D02*
X0146267Y0114237D01*
X0146267Y0119237D02*
X0143267Y0119237D01*
M02*
