%
M48
M72
T01C0.0197
T02C0.0315
T03C0.0394
%
T01
X6115Y1860
X7014Y4299
X10639Y830
X10983Y4455
X11514Y5580
X11889Y5986
X12233Y6393
X12681Y7761
X13577Y8674
X13577Y9674
X15014Y10705
X14420Y12455
X11827Y15486
X8739Y11718
X9108Y11311
X8902Y9655
X11327Y10174
X11327Y11393
X7389Y12049
X6077Y13486
X6077Y14174
X6087Y15870
X1452Y11174
X1389Y6299
X13827Y7018
X15889Y8674
T02
X9577Y9374
X9577Y10162
X9577Y10949
X9577Y11737
X9577Y12524
X9577Y13312
X9577Y14099
X9577Y14886
X9577Y15674
X9577Y7974
X9577Y7186
X9577Y6398
X9577Y5611
X9577Y4823
X9577Y4036
X9577Y3249
X9577Y2461
X9577Y1674
T03
X15309Y6174
X15469Y7174
X15309Y8174
X15469Y9174
X15309Y10174
X15469Y11174
M30
