G75*
%MOIN*%
%OFA0B0*%
%FSLAX25Y25*%
%IPPOS*%
%LPD*%
%AMOC8*
5,1,8,0,0,1.08239X$1,22.5*
%
%ADD10C,0.00010*%
D10*
X0082517Y0001737D02*
X0082517Y0086737D01*
X0089017Y0086737D01*
X0089017Y0001737D01*
X0089516Y0001737D02*
X0091599Y0001847D01*
X0093679Y0002008D01*
X0095753Y0002220D01*
X0097822Y0002482D01*
X0099884Y0002796D01*
X0101938Y0003159D01*
X0103982Y0003573D01*
X0106015Y0004037D01*
X0108037Y0004550D01*
X0110045Y0005113D01*
X0112038Y0005725D01*
X0114017Y0006386D01*
X0115978Y0007095D01*
X0117921Y0007852D01*
X0119846Y0008656D01*
X0121749Y0009507D01*
X0123632Y0010405D01*
X0125492Y0011348D01*
X0127328Y0012337D01*
X0129140Y0013371D01*
X0130925Y0014448D01*
X0132684Y0015569D01*
X0134415Y0016733D01*
X0136116Y0017939D01*
X0137788Y0019186D01*
X0139428Y0020474D01*
X0141037Y0021802D01*
X0142612Y0023168D01*
X0144153Y0024573D01*
X0145660Y0026015D01*
X0147130Y0027494D01*
X0148564Y0029008D01*
X0149961Y0030557D01*
X0151319Y0032140D01*
X0152638Y0033756D01*
X0153917Y0035403D01*
X0155155Y0037082D01*
X0156351Y0038790D01*
X0157505Y0040527D01*
X0158617Y0042292D01*
X0159685Y0044083D01*
X0160708Y0045900D01*
X0161687Y0047742D01*
X0162620Y0049607D01*
X0163508Y0051494D01*
X0164348Y0053403D01*
X0165142Y0055331D01*
X0165888Y0057279D01*
X0166586Y0059244D01*
X0167236Y0061226D01*
X0167837Y0063223D01*
X0168389Y0065234D01*
X0168892Y0067258D01*
X0169345Y0069294D01*
X0169747Y0071340D01*
X0170100Y0073396D01*
X0170402Y0075460D01*
X0170653Y0077530D01*
X0170853Y0079606D01*
X0171003Y0081686D01*
X0171101Y0083769D01*
X0171148Y0085854D01*
X0171145Y0087940D01*
X0171090Y0090025D01*
X0170984Y0092107D01*
X0170827Y0094187D01*
X0170619Y0096262D01*
X0170360Y0098332D01*
X0170050Y0100394D01*
X0169691Y0102448D01*
X0169280Y0104493D01*
X0168820Y0106527D01*
X0168310Y0108550D01*
X0167751Y0110559D01*
X0167143Y0112554D01*
X0166486Y0114533D01*
X0165780Y0116496D01*
X0165027Y0118440D01*
X0164226Y0120366D01*
X0163379Y0122272D01*
X0162484Y0124156D01*
X0161544Y0126018D01*
X0160559Y0127856D01*
X0159529Y0129669D01*
X0158454Y0131456D01*
X0157337Y0133217D01*
X0156176Y0134950D01*
X0154973Y0136654D01*
X0153729Y0138328D01*
X0152444Y0139970D01*
X0151119Y0141581D01*
X0149756Y0143159D01*
X0148354Y0144703D01*
X0146914Y0146212D01*
X0145438Y0147685D01*
X0143926Y0149122D01*
X0142380Y0150521D01*
X0140799Y0151882D01*
X0139186Y0153204D01*
X0137541Y0154486D01*
X0135865Y0155727D01*
X0134159Y0156927D01*
X0132424Y0158084D01*
X0130662Y0159199D01*
X0128872Y0160270D01*
X0127057Y0161297D01*
X0125217Y0162279D01*
X0123354Y0163215D01*
X0121468Y0164106D01*
X0119561Y0164950D01*
X0117634Y0165748D01*
X0115687Y0166497D01*
X0113724Y0167199D01*
X0111743Y0167853D01*
X0109747Y0168457D01*
X0107737Y0169013D01*
X0105714Y0169519D01*
X0103679Y0169976D01*
X0101633Y0170382D01*
X0099578Y0170738D01*
X0097515Y0171044D01*
X0095445Y0171299D01*
X0093370Y0171503D01*
X0091290Y0171656D01*
X0089207Y0171758D01*
X0087122Y0171810D01*
X0085036Y0171810D01*
X0082951Y0171758D01*
X0080868Y0171656D01*
X0078788Y0171503D01*
X0076713Y0171299D01*
X0074643Y0171044D01*
X0072580Y0170738D01*
X0070525Y0170382D01*
X0068479Y0169976D01*
X0066444Y0169519D01*
X0064421Y0169013D01*
X0062411Y0168457D01*
X0060415Y0167853D01*
X0058434Y0167199D01*
X0056471Y0166497D01*
X0054524Y0165748D01*
X0052597Y0164950D01*
X0050690Y0164106D01*
X0048804Y0163215D01*
X0046941Y0162279D01*
X0045101Y0161297D01*
X0043286Y0160270D01*
X0041496Y0159199D01*
X0039734Y0158084D01*
X0037999Y0156927D01*
X0036293Y0155727D01*
X0034617Y0154486D01*
X0032972Y0153204D01*
X0031359Y0151882D01*
X0029778Y0150521D01*
X0028232Y0149122D01*
X0026720Y0147685D01*
X0025244Y0146212D01*
X0023804Y0144703D01*
X0022402Y0143159D01*
X0021039Y0141581D01*
X0019714Y0139970D01*
X0018429Y0138328D01*
X0017185Y0136654D01*
X0015982Y0134950D01*
X0014821Y0133217D01*
X0013704Y0131456D01*
X0012629Y0129669D01*
X0011599Y0127856D01*
X0010614Y0126018D01*
X0009674Y0124156D01*
X0008779Y0122272D01*
X0007932Y0120366D01*
X0007131Y0118440D01*
X0006378Y0116496D01*
X0005672Y0114533D01*
X0005015Y0112554D01*
X0004407Y0110559D01*
X0003848Y0108550D01*
X0003338Y0106527D01*
X0002878Y0104493D01*
X0002467Y0102448D01*
X0002108Y0100394D01*
X0001798Y0098332D01*
X0001539Y0096262D01*
X0001331Y0094187D01*
X0001174Y0092107D01*
X0001068Y0090025D01*
X0001013Y0087940D01*
X0001010Y0085854D01*
X0001057Y0083769D01*
X0001155Y0081686D01*
X0001305Y0079606D01*
X0001505Y0077530D01*
X0001756Y0075460D01*
X0002058Y0073396D01*
X0002411Y0071340D01*
X0002813Y0069294D01*
X0003266Y0067258D01*
X0003769Y0065234D01*
X0004321Y0063223D01*
X0004922Y0061226D01*
X0005572Y0059244D01*
X0006270Y0057279D01*
X0007016Y0055331D01*
X0007810Y0053403D01*
X0008650Y0051494D01*
X0009538Y0049607D01*
X0010471Y0047742D01*
X0011450Y0045900D01*
X0012473Y0044083D01*
X0013541Y0042292D01*
X0014653Y0040527D01*
X0015807Y0038790D01*
X0017003Y0037082D01*
X0018241Y0035403D01*
X0019520Y0033756D01*
X0020839Y0032140D01*
X0022197Y0030557D01*
X0023594Y0029008D01*
X0025028Y0027494D01*
X0026498Y0026015D01*
X0028005Y0024573D01*
X0029546Y0023168D01*
X0031121Y0021802D01*
X0032730Y0020474D01*
X0034370Y0019186D01*
X0036042Y0017939D01*
X0037743Y0016733D01*
X0039474Y0015569D01*
X0041233Y0014448D01*
X0043018Y0013371D01*
X0044830Y0012337D01*
X0046666Y0011348D01*
X0048526Y0010405D01*
X0050409Y0009507D01*
X0052312Y0008656D01*
X0054237Y0007852D01*
X0056180Y0007095D01*
X0058141Y0006386D01*
X0060120Y0005725D01*
X0062113Y0005113D01*
X0064121Y0004550D01*
X0066143Y0004037D01*
X0068176Y0003573D01*
X0070220Y0003159D01*
X0072274Y0002796D01*
X0074336Y0002482D01*
X0076405Y0002220D01*
X0078479Y0002008D01*
X0080559Y0001847D01*
X0082642Y0001737D01*
X0075767Y0164238D02*
X0075769Y0164337D01*
X0075775Y0164437D01*
X0075785Y0164536D01*
X0075799Y0164634D01*
X0075816Y0164732D01*
X0075838Y0164829D01*
X0075863Y0164925D01*
X0075892Y0165020D01*
X0075925Y0165114D01*
X0075962Y0165206D01*
X0076002Y0165297D01*
X0076046Y0165386D01*
X0076094Y0165474D01*
X0076145Y0165559D01*
X0076199Y0165642D01*
X0076256Y0165724D01*
X0076317Y0165802D01*
X0076381Y0165879D01*
X0076447Y0165952D01*
X0076517Y0166023D01*
X0076589Y0166091D01*
X0076664Y0166157D01*
X0076742Y0166219D01*
X0076822Y0166278D01*
X0076904Y0166334D01*
X0076988Y0166386D01*
X0077075Y0166435D01*
X0077163Y0166481D01*
X0077253Y0166523D01*
X0077345Y0166562D01*
X0077438Y0166597D01*
X0077532Y0166628D01*
X0077628Y0166655D01*
X0077725Y0166678D01*
X0077822Y0166698D01*
X0077920Y0166714D01*
X0078019Y0166726D01*
X0078118Y0166734D01*
X0078217Y0166738D01*
X0078317Y0166738D01*
X0078416Y0166734D01*
X0078515Y0166726D01*
X0078614Y0166714D01*
X0078712Y0166698D01*
X0078809Y0166678D01*
X0078906Y0166655D01*
X0079002Y0166628D01*
X0079096Y0166597D01*
X0079189Y0166562D01*
X0079281Y0166523D01*
X0079371Y0166481D01*
X0079459Y0166435D01*
X0079546Y0166386D01*
X0079630Y0166334D01*
X0079712Y0166278D01*
X0079792Y0166219D01*
X0079870Y0166157D01*
X0079945Y0166091D01*
X0080017Y0166023D01*
X0080087Y0165952D01*
X0080153Y0165879D01*
X0080217Y0165802D01*
X0080278Y0165724D01*
X0080335Y0165642D01*
X0080389Y0165559D01*
X0080440Y0165474D01*
X0080488Y0165386D01*
X0080532Y0165297D01*
X0080572Y0165206D01*
X0080609Y0165114D01*
X0080642Y0165020D01*
X0080671Y0164925D01*
X0080696Y0164829D01*
X0080718Y0164732D01*
X0080735Y0164634D01*
X0080749Y0164536D01*
X0080759Y0164437D01*
X0080765Y0164337D01*
X0080767Y0164238D01*
X0080765Y0164139D01*
X0080759Y0164039D01*
X0080749Y0163940D01*
X0080735Y0163842D01*
X0080718Y0163744D01*
X0080696Y0163647D01*
X0080671Y0163551D01*
X0080642Y0163456D01*
X0080609Y0163362D01*
X0080572Y0163270D01*
X0080532Y0163179D01*
X0080488Y0163090D01*
X0080440Y0163002D01*
X0080389Y0162917D01*
X0080335Y0162834D01*
X0080278Y0162752D01*
X0080217Y0162674D01*
X0080153Y0162597D01*
X0080087Y0162524D01*
X0080017Y0162453D01*
X0079945Y0162385D01*
X0079870Y0162319D01*
X0079792Y0162257D01*
X0079712Y0162198D01*
X0079630Y0162142D01*
X0079546Y0162090D01*
X0079459Y0162041D01*
X0079371Y0161995D01*
X0079281Y0161953D01*
X0079189Y0161914D01*
X0079096Y0161879D01*
X0079002Y0161848D01*
X0078906Y0161821D01*
X0078809Y0161798D01*
X0078712Y0161778D01*
X0078614Y0161762D01*
X0078515Y0161750D01*
X0078416Y0161742D01*
X0078317Y0161738D01*
X0078217Y0161738D01*
X0078118Y0161742D01*
X0078019Y0161750D01*
X0077920Y0161762D01*
X0077822Y0161778D01*
X0077725Y0161798D01*
X0077628Y0161821D01*
X0077532Y0161848D01*
X0077438Y0161879D01*
X0077345Y0161914D01*
X0077253Y0161953D01*
X0077163Y0161995D01*
X0077075Y0162041D01*
X0076988Y0162090D01*
X0076904Y0162142D01*
X0076822Y0162198D01*
X0076742Y0162257D01*
X0076664Y0162319D01*
X0076589Y0162385D01*
X0076517Y0162453D01*
X0076447Y0162524D01*
X0076381Y0162597D01*
X0076317Y0162674D01*
X0076256Y0162752D01*
X0076199Y0162834D01*
X0076145Y0162917D01*
X0076094Y0163002D01*
X0076046Y0163090D01*
X0076002Y0163179D01*
X0075962Y0163270D01*
X0075925Y0163362D01*
X0075892Y0163456D01*
X0075863Y0163551D01*
X0075838Y0163647D01*
X0075816Y0163744D01*
X0075799Y0163842D01*
X0075785Y0163940D01*
X0075775Y0164039D01*
X0075769Y0164139D01*
X0075767Y0164238D01*
X0090767Y0164238D02*
X0090769Y0164337D01*
X0090775Y0164437D01*
X0090785Y0164536D01*
X0090799Y0164634D01*
X0090816Y0164732D01*
X0090838Y0164829D01*
X0090863Y0164925D01*
X0090892Y0165020D01*
X0090925Y0165114D01*
X0090962Y0165206D01*
X0091002Y0165297D01*
X0091046Y0165386D01*
X0091094Y0165474D01*
X0091145Y0165559D01*
X0091199Y0165642D01*
X0091256Y0165724D01*
X0091317Y0165802D01*
X0091381Y0165879D01*
X0091447Y0165952D01*
X0091517Y0166023D01*
X0091589Y0166091D01*
X0091664Y0166157D01*
X0091742Y0166219D01*
X0091822Y0166278D01*
X0091904Y0166334D01*
X0091988Y0166386D01*
X0092075Y0166435D01*
X0092163Y0166481D01*
X0092253Y0166523D01*
X0092345Y0166562D01*
X0092438Y0166597D01*
X0092532Y0166628D01*
X0092628Y0166655D01*
X0092725Y0166678D01*
X0092822Y0166698D01*
X0092920Y0166714D01*
X0093019Y0166726D01*
X0093118Y0166734D01*
X0093217Y0166738D01*
X0093317Y0166738D01*
X0093416Y0166734D01*
X0093515Y0166726D01*
X0093614Y0166714D01*
X0093712Y0166698D01*
X0093809Y0166678D01*
X0093906Y0166655D01*
X0094002Y0166628D01*
X0094096Y0166597D01*
X0094189Y0166562D01*
X0094281Y0166523D01*
X0094371Y0166481D01*
X0094459Y0166435D01*
X0094546Y0166386D01*
X0094630Y0166334D01*
X0094712Y0166278D01*
X0094792Y0166219D01*
X0094870Y0166157D01*
X0094945Y0166091D01*
X0095017Y0166023D01*
X0095087Y0165952D01*
X0095153Y0165879D01*
X0095217Y0165802D01*
X0095278Y0165724D01*
X0095335Y0165642D01*
X0095389Y0165559D01*
X0095440Y0165474D01*
X0095488Y0165386D01*
X0095532Y0165297D01*
X0095572Y0165206D01*
X0095609Y0165114D01*
X0095642Y0165020D01*
X0095671Y0164925D01*
X0095696Y0164829D01*
X0095718Y0164732D01*
X0095735Y0164634D01*
X0095749Y0164536D01*
X0095759Y0164437D01*
X0095765Y0164337D01*
X0095767Y0164238D01*
X0095765Y0164139D01*
X0095759Y0164039D01*
X0095749Y0163940D01*
X0095735Y0163842D01*
X0095718Y0163744D01*
X0095696Y0163647D01*
X0095671Y0163551D01*
X0095642Y0163456D01*
X0095609Y0163362D01*
X0095572Y0163270D01*
X0095532Y0163179D01*
X0095488Y0163090D01*
X0095440Y0163002D01*
X0095389Y0162917D01*
X0095335Y0162834D01*
X0095278Y0162752D01*
X0095217Y0162674D01*
X0095153Y0162597D01*
X0095087Y0162524D01*
X0095017Y0162453D01*
X0094945Y0162385D01*
X0094870Y0162319D01*
X0094792Y0162257D01*
X0094712Y0162198D01*
X0094630Y0162142D01*
X0094546Y0162090D01*
X0094459Y0162041D01*
X0094371Y0161995D01*
X0094281Y0161953D01*
X0094189Y0161914D01*
X0094096Y0161879D01*
X0094002Y0161848D01*
X0093906Y0161821D01*
X0093809Y0161798D01*
X0093712Y0161778D01*
X0093614Y0161762D01*
X0093515Y0161750D01*
X0093416Y0161742D01*
X0093317Y0161738D01*
X0093217Y0161738D01*
X0093118Y0161742D01*
X0093019Y0161750D01*
X0092920Y0161762D01*
X0092822Y0161778D01*
X0092725Y0161798D01*
X0092628Y0161821D01*
X0092532Y0161848D01*
X0092438Y0161879D01*
X0092345Y0161914D01*
X0092253Y0161953D01*
X0092163Y0161995D01*
X0092075Y0162041D01*
X0091988Y0162090D01*
X0091904Y0162142D01*
X0091822Y0162198D01*
X0091742Y0162257D01*
X0091664Y0162319D01*
X0091589Y0162385D01*
X0091517Y0162453D01*
X0091447Y0162524D01*
X0091381Y0162597D01*
X0091317Y0162674D01*
X0091256Y0162752D01*
X0091199Y0162834D01*
X0091145Y0162917D01*
X0091094Y0163002D01*
X0091046Y0163090D01*
X0091002Y0163179D01*
X0090962Y0163270D01*
X0090925Y0163362D01*
X0090892Y0163456D01*
X0090863Y0163551D01*
X0090838Y0163647D01*
X0090816Y0163744D01*
X0090799Y0163842D01*
X0090785Y0163940D01*
X0090775Y0164039D01*
X0090769Y0164139D01*
X0090767Y0164238D01*
M02*
